<svg width="16" height="16" viewBox="0 0 16 16" fill="none" xmlns="http://www.w3.org/2000/svg">
<g id="Eraser" clip-path="url(#clip0_1057_6230)">
<path id="Vector" d="M5 7L9 11" stroke="black" stroke-linecap="round" stroke-linejoin="round"/>
<g id="Vector_2">
<mask id="path-2-outside-1_1057_6230" maskUnits="userSpaceOnUse" x="1" y="1" width="14" height="13" fill="black">
<rect fill="white" x="1" y="1" width="14" height="13"/>
<path d="M6.99985 12.9998L13.7067 6.29297C13.7996 6.20011 13.8733 6.08986 13.9236 5.96852C13.9738 5.84718 13.9997 5.71713 13.9997 5.58579C13.9997 5.45445 13.9738 5.32439 13.9236 5.20305C13.8733 5.08171 13.7996 4.97146 13.7067 4.8786L11.1211 2.29297C11.0282 2.20009 10.918 2.12641 10.7966 2.07614C10.6753 2.02587 10.5453 2 10.4139 2C10.2826 2 10.1525 2.02587 10.0312 2.07614C9.90984 2.12641 9.79959 2.20009 9.70672 2.29297L2.29297 9.70672C2.20009 9.79959 2.12641 9.90984 2.07614 10.0312C2.02587 10.1525 2 10.2826 2 10.4139C2 10.5453 2.02587 10.6753 2.07614 10.7966C2.12641 10.918 2.20009 11.0282 2.29297 11.1211L4.17172 12.9998H13.4998"/>
</mask>
<path d="M6.29274 12.2927C5.90222 12.6833 5.90222 13.3164 6.29274 13.707C6.68327 14.0975 7.31643 14.0975 7.70696 13.707L6.29274 12.2927ZM13.7067 6.29297L12.9997 5.58579L12.9996 5.58587L13.7067 6.29297ZM13.9997 5.58579H12.9997H13.9997ZM13.7067 4.8786L12.9996 5.58571L12.9997 5.58579L13.7067 4.8786ZM11.1211 2.29297L10.4139 3L10.414 3.00008L11.1211 2.29297ZM10.4139 2V1V2ZM9.70672 2.29297L10.4138 3.00008L10.4139 3L9.70672 2.29297ZM2.29297 9.70672L3 10.4139L3.00008 10.4138L2.29297 9.70672ZM2 10.4139H1H2ZM2.29297 11.1211L3.00008 10.414L3 10.4139L2.29297 11.1211ZM4.17172 12.9998L3.46462 13.707C3.65215 13.8945 3.90651 13.9998 4.17172 13.9998V12.9998ZM13.4998 13.9998C14.0521 13.9998 14.4998 13.5521 14.4998 12.9998C14.4998 12.4476 14.0521 11.9998 13.4998 11.9998V13.9998ZM7.70696 13.707L14.4138 7.00008L12.9996 5.58587L6.29274 12.2927L7.70696 13.707ZM14.4138 7.00016C14.5995 6.81444 14.7469 6.59394 14.8474 6.35126L12.9997 5.58579V5.58579L14.4138 7.00016ZM14.8474 6.35126C14.9479 6.10858 14.9997 5.84847 14.9997 5.58579H12.9997H12.9997L14.8474 6.35126ZM14.9997 5.58579C14.9997 5.3231 14.9479 5.06299 14.8474 4.82031L12.9997 5.58579H12.9997H14.9997ZM14.8474 4.82031C14.7469 4.57764 14.5995 4.35714 14.4138 4.17141L12.9997 5.58579V5.58579L14.8474 4.82031ZM14.4138 4.17149L11.8282 1.58587L10.414 3.00008L12.9996 5.58571L14.4138 4.17149ZM11.8283 1.58595C11.6426 1.40018 11.4221 1.25282 11.1794 1.15228L10.4139 3V3L11.8283 1.58595ZM11.1794 1.15228C10.9367 1.05175 10.6766 1 10.4139 1V3L11.1794 1.15228ZM10.4139 1C10.1512 1 9.89112 1.05175 9.64844 1.15228L10.4139 3V1ZM9.64844 1.15228C9.40576 1.25282 9.18526 1.40018 8.99954 1.58595L10.4139 3L10.4139 3L9.64844 1.15228ZM8.99962 1.58587L1.58587 8.99962L3.00008 10.4138L10.4138 3.00008L8.99962 1.58587ZM1.58595 8.99954C1.40018 9.18526 1.25282 9.40576 1.15228 9.64844L3 10.4139L3 10.4139L1.58595 8.99954ZM1.15228 9.64844C1.05175 9.89112 1 10.1512 1 10.4139H3L1.15228 9.64844ZM1 10.4139C1 10.6766 1.05175 10.9367 1.15228 11.1794L3 10.4139H1ZM1.15228 11.1794C1.25282 11.4221 1.40018 11.6426 1.58595 11.8283L3 10.4139H3L1.15228 11.1794ZM1.58587 11.8282L3.46462 13.707L4.87883 12.2927L3.00008 10.414L1.58587 11.8282ZM4.17172 13.9998H13.4998V11.9998H4.17172V13.9998Z" fill="black" mask="url(#path-2-outside-1_1057_6230)"/>
</g>
</g>
<defs>
<clipPath id="clip0_1057_6230">
<rect width="16" height="16" fill="white"/>
</clipPath>
</defs>
</svg>
